<svg width="347" height="40" viewBox="0 0 347 40" fill="none" xmlns="http://www.w3.org/2000/svg">
<path d="M0.32 30V2H6.8V30H0.32ZM20.245 30.32C18.405 30.32 16.6317 30.1067 14.925 29.68C13.245 29.2267 11.9117 28.6667 10.925 28L13.005 23.52C13.9917 24.1333 15.1517 24.64 16.485 25.04C17.845 25.4133 19.1783 25.6 20.485 25.6C21.925 25.6 22.9383 25.4267 23.525 25.08C24.1383 24.7333 24.445 24.2533 24.445 23.64C24.445 23.1333 24.205 22.76 23.725 22.52C23.2717 22.2533 22.6583 22.0533 21.885 21.92C21.1117 21.7867 20.2583 21.6533 19.325 21.52C18.4183 21.3867 17.4983 21.2133 16.565 21C15.6317 20.76 14.7783 20.4133 14.005 19.96C13.2317 19.5067 12.605 18.8933 12.125 18.12C11.6717 17.3467 11.445 16.3467 11.445 15.12C11.445 13.76 11.8317 12.56 12.605 11.52C13.405 10.48 14.5517 9.66667 16.045 9.08C17.5383 8.46667 19.325 8.16 21.405 8.16C22.8717 8.16 24.365 8.32 25.885 8.64C27.405 8.96 28.6717 9.42667 29.685 10.04L27.605 14.48C26.565 13.8667 25.5117 13.4533 24.445 13.24C23.405 13 22.3917 12.88 21.405 12.88C20.0183 12.88 19.005 13.0667 18.365 13.44C17.725 13.8133 17.405 14.2933 17.405 14.88C17.405 15.4133 17.6317 15.8133 18.085 16.08C18.565 16.3467 19.1917 16.56 19.965 16.72C20.7383 16.88 21.5783 17.0267 22.485 17.16C23.4183 17.2667 24.3517 17.44 25.285 17.68C26.2183 17.92 27.0583 18.2667 27.805 18.72C28.5783 19.1467 29.205 19.7467 29.685 20.52C30.165 21.2667 30.405 22.2533 30.405 23.48C30.405 24.8133 30.005 26 29.205 27.04C28.405 28.0533 27.245 28.8533 25.725 29.44C24.2317 30.0267 22.405 30.32 20.245 30.32ZM47.455 30V25.8L47.055 24.88V17.36C47.055 16.0267 46.6417 14.9867 45.815 14.24C45.015 13.4933 43.775 13.12 42.095 13.12C40.9483 13.12 39.815 13.3067 38.695 13.68C37.6017 14.0267 36.6683 14.5067 35.895 15.12L33.655 10.76C34.8283 9.93333 36.2417 9.29333 37.895 8.84C39.5483 8.38667 41.2283 8.16 42.935 8.16C46.215 8.16 48.7617 8.93333 50.575 10.48C52.3883 12.0267 53.295 14.44 53.295 17.72V30H47.455ZM40.895 30.32C39.215 30.32 37.775 30.04 36.575 29.48C35.375 28.8933 34.455 28.1067 33.815 27.12C33.175 26.1333 32.855 25.0267 32.855 23.8C32.855 22.52 33.1617 21.4 33.775 20.44C34.415 19.48 35.415 18.7333 36.775 18.2C38.135 17.64 39.9083 17.36 42.095 17.36H47.815V21H42.775C41.3083 21 40.295 21.24 39.735 21.72C39.2017 22.2 38.935 22.8 38.935 23.52C38.935 24.32 39.2417 24.96 39.855 25.44C40.495 25.8933 41.3617 26.12 42.455 26.12C43.495 26.12 44.4283 25.88 45.255 25.4C46.0817 24.8933 46.6817 24.16 47.055 23.2L48.015 26.08C47.5617 27.4667 46.735 28.52 45.535 29.24C44.335 29.96 42.7883 30.32 40.895 30.32ZM71.6625 30.32C69.7692 30.32 68.1425 29.92 66.7825 29.12C65.4225 28.32 64.3825 27.1067 63.6625 25.48C62.9425 23.8267 62.5825 21.7467 62.5825 19.24C62.5825 16.7067 62.9558 14.6267 63.7025 13C64.4758 11.3733 65.5425 10.16 66.9025 9.36C68.2625 8.56 69.8492 8.16 71.6625 8.16C73.6892 8.16 75.5025 8.61333 77.1025 9.52C78.7292 10.4267 80.0092 11.7067 80.9425 13.36C81.9025 15.0133 82.3825 16.9733 82.3825 19.24C82.3825 21.48 81.9025 23.4267 80.9425 25.08C80.0092 26.7333 78.7292 28.0267 77.1025 28.96C75.5025 29.8667 73.6892 30.32 71.6625 30.32ZM58.9425 30V0.319998H65.1825V12.84L64.7825 19.2L64.9025 25.6V30H58.9425ZM70.5825 25.2C71.6225 25.2 72.5425 24.96 73.3425 24.48C74.1692 24 74.8225 23.32 75.3025 22.44C75.8092 21.5333 76.0625 20.4667 76.0625 19.24C76.0625 17.9867 75.8092 16.92 75.3025 16.04C74.8225 15.16 74.1692 14.48 73.3425 14C72.5425 13.52 71.6225 13.28 70.5825 13.28C69.5425 13.28 68.6092 13.52 67.7825 14C66.9558 14.48 66.3025 15.16 65.8225 16.04C65.3425 16.92 65.1025 17.9867 65.1025 19.24C65.1025 20.4667 65.3425 21.5333 65.8225 22.44C66.3025 23.32 66.9558 24 67.7825 24.48C68.6092 24.96 69.5425 25.2 70.5825 25.2ZM97.2397 30.32C94.7864 30.32 92.6264 29.84 90.7597 28.88C88.9197 27.92 87.493 26.6133 86.4797 24.96C85.4664 23.28 84.9597 21.3733 84.9597 19.24C84.9597 17.08 85.453 15.1733 86.4397 13.52C87.453 11.84 88.8264 10.5333 90.5597 9.6C92.293 8.64 94.253 8.16 96.4397 8.16C98.5464 8.16 100.44 8.61333 102.12 9.52C103.826 10.4 105.173 11.68 106.16 13.36C107.146 15.0133 107.64 17 107.64 19.32C107.64 19.56 107.626 19.84 107.6 20.16C107.573 20.4533 107.546 20.7333 107.52 21H90.0397V17.36H104.24L101.84 18.44C101.84 17.32 101.613 16.3467 101.16 15.52C100.706 14.6933 100.08 14.0533 99.2797 13.6C98.4797 13.12 97.5464 12.88 96.4797 12.88C95.413 12.88 94.4664 13.12 93.6397 13.6C92.8397 14.0533 92.213 14.7067 91.7597 15.56C91.3064 16.3867 91.0797 17.3733 91.0797 18.52V19.48C91.0797 20.6533 91.333 21.6933 91.8397 22.6C92.373 23.48 93.1064 24.16 94.0397 24.64C94.9997 25.0933 96.1197 25.32 97.3997 25.32C98.5464 25.32 99.5464 25.1467 100.4 24.8C101.28 24.4533 102.08 23.9333 102.8 23.24L106.12 26.84C105.133 27.96 103.893 28.8267 102.4 29.44C100.906 30.0267 99.1864 30.32 97.2397 30.32ZM111.794 30V0.319998H118.034V30H111.794ZM149.113 30.48C146.9 30.48 144.86 30.1333 142.993 29.44C141.153 28.72 139.54 27.7067 138.153 26.4C136.793 25.0933 135.727 23.56 134.953 21.8C134.207 20.04 133.833 18.1067 133.833 16C133.833 13.8933 134.207 11.96 134.953 10.2C135.727 8.44 136.807 6.90667 138.193 5.6C139.58 4.29333 141.207 3.29333 143.073 2.6C144.94 1.88 146.993 1.52 149.233 1.52C151.713 1.52 153.94 1.93333 155.913 2.76C157.913 3.58666 159.593 4.78667 160.953 6.36L156.793 10.2C155.78 9.13333 154.673 8.34667 153.473 7.84C152.273 7.30667 150.967 7.04 149.553 7.04C148.193 7.04 146.953 7.25333 145.833 7.68C144.713 8.10666 143.74 8.72 142.913 9.52C142.113 10.32 141.487 11.2667 141.033 12.36C140.607 13.4533 140.393 14.6667 140.393 16C140.393 17.3067 140.607 18.5067 141.033 19.6C141.487 20.6933 142.113 21.6533 142.913 22.48C143.74 23.28 144.7 23.8933 145.793 24.32C146.913 24.7467 148.14 24.96 149.473 24.96C150.753 24.96 151.993 24.76 153.193 24.36C154.42 23.9333 155.607 23.2267 156.753 22.24L160.433 26.92C158.913 28.0667 157.14 28.9467 155.113 29.56C153.113 30.1733 151.113 30.48 149.113 30.48ZM154.513 26.08V15.56H160.433V26.92L154.513 26.08ZM176.253 30.32C173.959 30.32 171.919 29.84 170.133 28.88C168.373 27.92 166.973 26.6133 165.933 24.96C164.919 23.28 164.413 21.3733 164.413 19.24C164.413 17.08 164.919 15.1733 165.933 13.52C166.973 11.84 168.373 10.5333 170.133 9.6C171.919 8.64 173.959 8.16 176.253 8.16C178.519 8.16 180.546 8.64 182.333 9.6C184.119 10.5333 185.519 11.8267 186.533 13.48C187.546 15.1333 188.053 17.0533 188.053 19.24C188.053 21.3733 187.546 23.28 186.533 24.96C185.519 26.6133 184.119 27.92 182.333 28.88C180.546 29.84 178.519 30.32 176.253 30.32ZM176.253 25.2C177.293 25.2 178.226 24.96 179.053 24.48C179.879 24 180.533 23.32 181.013 22.44C181.493 21.5333 181.733 20.4667 181.733 19.24C181.733 17.9867 181.493 16.92 181.013 16.04C180.533 15.16 179.879 14.48 179.053 14C178.226 13.52 177.293 13.28 176.253 13.28C175.213 13.28 174.279 13.52 173.453 14C172.626 14.48 171.959 15.16 171.453 16.04C170.973 16.92 170.733 17.9867 170.733 19.24C170.733 20.4667 170.973 21.5333 171.453 22.44C171.959 23.32 172.626 24 173.453 24.48C174.279 24.96 175.213 25.2 176.253 25.2ZM205.304 8.16C207.01 8.16 208.53 8.50667 209.864 9.2C211.224 9.86667 212.29 10.9067 213.064 12.32C213.837 13.7067 214.224 15.4933 214.224 17.68V30H207.984V18.64C207.984 16.9067 207.597 15.6267 206.824 14.8C206.077 13.9733 205.01 13.56 203.624 13.56C202.637 13.56 201.744 13.7733 200.944 14.2C200.17 14.6 199.557 15.2267 199.104 16.08C198.677 16.9333 198.464 18.0267 198.464 19.36V30H192.224V8.48H198.184V14.44L197.064 12.64C197.837 11.2 198.944 10.0933 200.384 9.32C201.824 8.54667 203.464 8.16 205.304 8.16ZM230.436 30.32C228.116 30.32 226.05 29.8533 224.236 28.92C222.423 27.96 220.996 26.64 219.956 24.96C218.943 23.28 218.436 21.3733 218.436 19.24C218.436 17.08 218.943 15.1733 219.956 13.52C220.996 11.84 222.423 10.5333 224.236 9.6C226.05 8.64 228.116 8.16 230.436 8.16C232.703 8.16 234.676 8.64 236.356 9.6C238.036 10.5333 239.276 11.88 240.076 13.64L235.236 16.24C234.676 15.2267 233.97 14.48 233.116 14C232.29 13.52 231.383 13.28 230.396 13.28C229.33 13.28 228.37 13.52 227.516 14C226.663 14.48 225.983 15.16 225.476 16.04C224.996 16.92 224.756 17.9867 224.756 19.24C224.756 20.4933 224.996 21.56 225.476 22.44C225.983 23.32 226.663 24 227.516 24.48C228.37 24.96 229.33 25.2 230.396 25.2C231.383 25.2 232.29 24.9733 233.116 24.52C233.97 24.04 234.676 23.28 235.236 22.24L240.076 24.88C239.276 26.6133 238.036 27.96 236.356 28.92C234.676 29.8533 232.703 30.32 230.436 30.32ZM228.156 39.28C227.463 39.28 226.783 39.2 226.116 39.04C225.476 38.88 224.916 38.68 224.436 38.44L225.396 35.76C225.796 35.9467 226.21 36.0933 226.636 36.2C227.063 36.3067 227.516 36.36 227.996 36.36C228.743 36.36 229.276 36.24 229.596 36C229.916 35.76 230.076 35.4533 230.076 35.08C230.076 34.7333 229.916 34.4533 229.596 34.24C229.303 34.0267 228.81 33.92 228.116 33.92H226.756L227.796 29.68H231.116L230.556 32C231.756 32.1333 232.636 32.5067 233.196 33.12C233.756 33.76 234.036 34.4933 234.036 35.32C234.036 36.52 233.503 37.48 232.436 38.2C231.37 38.92 229.943 39.28 228.156 39.28ZM256.869 30V25.8L256.469 24.88V17.36C256.469 16.0267 256.056 14.9867 255.229 14.24C254.429 13.4933 253.189 13.12 251.509 13.12C250.362 13.12 249.229 13.3067 248.109 13.68C247.016 14.0267 246.082 14.5067 245.309 15.12L243.069 10.76C244.242 9.93333 245.656 9.29333 247.309 8.84C248.962 8.38667 250.642 8.16 252.349 8.16C255.629 8.16 258.176 8.93333 259.989 10.48C261.802 12.0267 262.709 14.44 262.709 17.72V30H256.869ZM250.309 30.32C248.629 30.32 247.189 30.04 245.989 29.48C244.789 28.8933 243.869 28.1067 243.229 27.12C242.589 26.1333 242.269 25.0267 242.269 23.8C242.269 22.52 242.576 21.4 243.189 20.44C243.829 19.48 244.829 18.7333 246.189 18.2C247.549 17.64 249.322 17.36 251.509 17.36H257.229V21H252.189C250.722 21 249.709 21.24 249.149 21.72C248.616 22.2 248.349 22.8 248.349 23.52C248.349 24.32 248.656 24.96 249.269 25.44C249.909 25.8933 250.776 26.12 251.869 26.12C252.909 26.12 253.842 25.88 254.669 25.4C255.496 24.8933 256.096 24.16 256.469 23.2L257.429 26.08C256.976 27.4667 256.149 28.52 254.949 29.24C253.749 29.96 252.202 30.32 250.309 30.32ZM268.357 30V0.319998H274.597V30H268.357ZM286.228 30L277.188 8.48H283.628L291.148 27H287.948L295.748 8.48H301.748L292.668 30H286.228ZM314.388 30.32C311.935 30.32 309.775 29.84 307.908 28.88C306.068 27.92 304.641 26.6133 303.628 24.96C302.615 23.28 302.108 21.3733 302.108 19.24C302.108 17.08 302.601 15.1733 303.588 13.52C304.601 11.84 305.975 10.5333 307.708 9.6C309.441 8.64 311.401 8.16 313.588 8.16C315.695 8.16 317.588 8.61333 319.268 9.52C320.975 10.4 322.321 11.68 323.308 13.36C324.295 15.0133 324.788 17 324.788 19.32C324.788 19.56 324.775 19.84 324.748 20.16C324.721 20.4533 324.695 20.7333 324.668 21H307.188V17.36H321.388L318.988 18.44C318.988 17.32 318.761 16.3467 318.308 15.52C317.855 14.6933 317.228 14.0533 316.428 13.6C315.628 13.12 314.695 12.88 313.628 12.88C312.561 12.88 311.615 13.12 310.788 13.6C309.988 14.0533 309.361 14.7067 308.908 15.56C308.455 16.3867 308.228 17.3733 308.228 18.52V19.48C308.228 20.6533 308.481 21.6933 308.988 22.6C309.521 23.48 310.255 24.16 311.188 24.64C312.148 25.0933 313.268 25.32 314.548 25.32C315.695 25.32 316.695 25.1467 317.548 24.8C318.428 24.4533 319.228 23.9333 319.948 23.24L323.268 26.84C322.281 27.96 321.041 28.8267 319.548 29.44C318.055 30.0267 316.335 30.32 314.388 30.32ZM336.183 30.32C334.343 30.32 332.569 30.1067 330.863 29.68C329.183 29.2267 327.849 28.6667 326.863 28L328.943 23.52C329.929 24.1333 331.089 24.64 332.423 25.04C333.783 25.4133 335.116 25.6 336.423 25.6C337.863 25.6 338.876 25.4267 339.463 25.08C340.076 24.7333 340.383 24.2533 340.383 23.64C340.383 23.1333 340.143 22.76 339.663 22.52C339.209 22.2533 338.596 22.0533 337.822 21.92C337.049 21.7867 336.196 21.6533 335.263 21.52C334.356 21.3867 333.436 21.2133 332.503 21C331.569 20.76 330.716 20.4133 329.943 19.96C329.169 19.5067 328.543 18.8933 328.063 18.12C327.609 17.3467 327.382 16.3467 327.382 15.12C327.382 13.76 327.769 12.56 328.543 11.52C329.343 10.48 330.489 9.66667 331.983 9.08C333.476 8.46667 335.263 8.16 337.343 8.16C338.809 8.16 340.303 8.32 341.823 8.64C343.343 8.96 344.609 9.42667 345.623 10.04L343.543 14.48C342.503 13.8667 341.449 13.4533 340.383 13.24C339.343 13 338.329 12.88 337.343 12.88C335.956 12.88 334.943 13.0667 334.303 13.44C333.663 13.8133 333.343 14.2933 333.343 14.88C333.343 15.4133 333.569 15.8133 334.023 16.08C334.503 16.3467 335.129 16.56 335.903 16.72C336.676 16.88 337.516 17.0267 338.423 17.16C339.356 17.2667 340.289 17.44 341.223 17.68C342.156 17.92 342.996 18.2667 343.743 18.72C344.516 19.1467 345.143 19.7467 345.623 20.52C346.103 21.2667 346.343 22.2533 346.343 23.48C346.343 24.8133 345.943 26 345.143 27.04C344.343 28.0533 343.183 28.8533 341.663 29.44C340.169 30.0267 338.343 30.32 336.183 30.32Z" fill="#0E0E0E"/>
</svg>
